<svg width="105" height="193" viewBox="0 0 105 193" fill="none" xmlns="http://www.w3.org/2000/svg">
<mask id="mask0" mask-type="alpha" maskUnits="userSpaceOnUse" x="0" y="0" width="105" height="193">
<rect width="105" height="193" fill="#C4C4C4"/>
</mask>
<g mask="url(#mask0)">
<path d="M53.9301 4.62408C56.8915 4.62408 59.2922 2.22341 59.2922 -0.737948C59.2922 -1.12236 59.2501 -1.49664 59.1729 -1.85739C56.0256 -0.424041 52.9614 1.16192 49.9904 2.88937C50.9697 3.95328 52.3703 4.62408 53.9301 4.62408Z" fill="#8BB5CB"/>
<path d="M64.7584 -0.738556C64.7584 2.22232 67.1586 4.62347 70.12 4.62347C73.0813 4.62347 75.4815 2.2228 75.4815 -0.738556C75.4815 -3.69991 73.0813 -6.1001 70.12 -6.1001C70.0992 -6.1001 70.0789 -6.09768 70.0577 -6.0972C68.9909 -5.74949 67.9318 -5.38391 66.8795 -5.00287C65.5925 -4.02396 64.7584 -2.48002 64.7584 -0.738556Z" fill="#8BB5CB"/>
<path d="M86.31 4.62298C89.2711 4.62298 91.6715 2.22254 91.6715 -0.738555C91.6715 -3.69965 89.2711 -6.1001 86.31 -6.1001C83.3489 -6.1001 80.9485 -3.69965 80.9485 -0.738555C80.9485 2.22254 83.3489 4.62298 86.31 4.62298Z" fill="#8BB5CB"/>
<path d="M102.501 4.62298C105.462 4.62298 107.863 2.22254 107.863 -0.738555C107.863 -3.69965 105.462 -6.1001 102.501 -6.1001C99.5401 -6.1001 97.1396 -3.69965 97.1396 -0.738555C97.1396 2.22254 99.5401 4.62298 102.501 4.62298Z" fill="#8BB5CB"/>
<path d="M37.7432 20.3123C40.704 20.3123 43.1047 17.9121 43.1047 14.9503C43.1047 12.5974 41.5864 10.6034 39.4788 9.88138C37.0473 11.7189 34.6987 13.6603 32.4396 15.6988C32.8047 18.3052 35.0363 20.3123 37.7432 20.3123Z" fill="#8BB5CB"/>
<path d="M53.9334 20.3122C56.8945 20.3122 59.2949 17.9117 59.2949 14.9507C59.2949 11.9896 56.8945 9.58911 53.9334 9.58911C50.9723 9.58911 48.5718 11.9896 48.5718 14.9507C48.5718 17.9117 50.9723 20.3122 53.9334 20.3122Z" fill="#8BB5CB"/>
<path d="M70.12 20.3122C73.0811 20.3122 75.4815 17.9117 75.4815 14.9507C75.4815 11.9896 73.0811 9.58911 70.12 9.58911C67.1589 9.58911 64.7584 11.9896 64.7584 14.9507C64.7584 17.9117 67.1589 20.3122 70.12 20.3122Z" fill="#8BB5CB"/>
<path d="M86.31 20.3122C89.2711 20.3122 91.6715 17.9117 91.6715 14.9507C91.6715 11.9896 89.2711 9.58911 86.31 9.58911C83.3489 9.58911 80.9485 11.9896 80.9485 14.9507C80.9485 17.9117 83.3489 20.3122 86.31 20.3122Z" fill="#8BB5CB"/>
<path d="M102.501 20.3122C105.462 20.3122 107.863 17.9117 107.863 14.9507C107.863 11.9896 105.462 9.58911 102.501 9.58911C99.5401 9.58911 97.1396 11.9896 97.1396 14.9507C97.1396 17.9117 99.5401 20.3122 102.501 20.3122Z" fill="#8BB5CB"/>
<path d="M21.5491 36.0034C24.5105 36.0034 26.9112 33.6027 26.9112 30.6414C26.9112 28.1586 25.2209 26.0762 22.9308 25.4658C20.7938 27.9664 18.7728 30.5684 16.8753 33.2647C17.7948 34.898 19.5421 36.0034 21.5491 36.0034Z" fill="#8BB5CB"/>
<path d="M37.7438 36.0033C40.7052 36.0033 43.1059 33.6026 43.1059 30.6412C43.1059 27.6799 40.7052 25.2792 37.7438 25.2792C34.7825 25.2792 32.3818 27.6799 32.3818 30.6412C32.3818 33.6026 34.7825 36.0033 37.7438 36.0033Z" fill="#8BB5CB"/>
<path d="M53.9333 36.0033C56.8946 36.0033 59.2953 33.6026 59.2953 30.6412C59.2953 27.6799 56.8946 25.2792 53.9333 25.2792C50.9719 25.2792 48.5712 27.6799 48.5712 30.6412C48.5712 33.6026 50.9719 36.0033 53.9333 36.0033Z" fill="#8BB5CB"/>
<path d="M70.1198 36.0033C73.0812 36.0033 75.4819 33.6026 75.4819 30.6412C75.4819 27.6799 73.0812 25.2792 70.1198 25.2792C67.1585 25.2792 64.7578 27.6799 64.7578 30.6412C64.7578 33.6026 67.1585 36.0033 70.1198 36.0033Z" fill="#8BB5CB"/>
<path d="M86.3099 36.0033C89.2712 36.0033 91.6719 33.6026 91.6719 30.6412C91.6719 27.6799 89.2712 25.2792 86.3099 25.2792C83.3485 25.2792 80.9478 27.6799 80.9478 30.6412C80.9478 33.6026 83.3485 36.0033 86.3099 36.0033Z" fill="#8BB5CB"/>
<path d="M102.501 36.0033C105.463 36.0033 107.863 33.6026 107.863 30.6412C107.863 27.6799 105.463 25.2792 102.501 25.2792C99.5397 25.2792 97.139 27.6799 97.139 30.6412C97.139 33.6026 99.5397 36.0033 102.501 36.0033Z" fill="#8BB5CB"/>
<path d="M10.7257 46.3306C10.7257 45.5203 10.5408 44.7553 10.2191 44.0667C8.91376 46.5045 7.70062 48.9984 6.58698 51.5468C8.95819 50.9924 10.7257 48.8699 10.7257 46.3306Z" fill="#8BB5CB"/>
<path d="M21.5522 51.6921C24.5133 51.6921 26.9137 49.2917 26.9137 46.3306C26.9137 43.3695 24.5133 40.9691 21.5522 40.9691C18.5911 40.9691 16.1906 43.3695 16.1906 46.3306C16.1906 49.2917 18.5911 51.6921 21.5522 51.6921Z" fill="#8BB5CB"/>
<path d="M37.744 51.6921C40.7051 51.6921 43.1056 49.2917 43.1056 46.3306C43.1056 43.3695 40.7051 40.9691 37.744 40.9691C34.7829 40.9691 32.3824 43.3695 32.3824 46.3306C32.3824 49.2917 34.7829 51.6921 37.744 51.6921Z" fill="#8BB5CB"/>
<path d="M53.9334 51.6921C56.8945 51.6921 59.2949 49.2917 59.2949 46.3306C59.2949 43.3695 56.8945 40.9691 53.9334 40.9691C50.9723 40.9691 48.5718 43.3695 48.5718 46.3306C48.5718 49.2917 50.9723 51.6921 53.9334 51.6921Z" fill="#8BB5CB"/>
<path d="M70.12 51.6921C73.0811 51.6921 75.4815 49.2917 75.4815 46.3306C75.4815 43.3695 73.0811 40.9691 70.12 40.9691C67.1589 40.9691 64.7584 43.3695 64.7584 46.3306C64.7584 49.2917 67.1589 51.6921 70.12 51.6921Z" fill="#8BB5CB"/>
<path d="M86.31 51.6921C89.2711 51.6921 91.6715 49.2917 91.6715 46.3306C91.6715 43.3695 89.2711 40.9691 86.31 40.9691C83.3489 40.9691 80.9485 43.3695 80.9485 46.3306C80.9485 49.2917 83.3489 51.6921 86.31 51.6921Z" fill="#8BB5CB"/>
<path d="M102.501 51.6921C105.462 51.6921 107.863 49.2917 107.863 46.3306C107.863 43.3695 105.462 40.9691 102.501 40.9691C99.5401 40.9691 97.1396 43.3695 97.1396 46.3306C97.1396 49.2917 99.5401 51.6921 102.501 51.6921Z" fill="#8BB5CB"/>
<path d="M5.36609 67.3809C8.32745 67.3809 10.7281 64.9808 10.7281 62.0189C10.7281 59.0576 8.32745 56.6569 5.36609 56.6569C5.06619 56.6569 4.7745 56.6878 4.48764 56.7356C3.38027 59.695 2.40281 62.7168 1.5625 65.7964C2.53368 66.7749 3.87865 67.3809 5.36609 67.3809Z" fill="#8BB5CB"/>
<path d="M21.5521 67.3817C24.5134 67.3817 26.9141 64.981 26.9141 62.0197C26.9141 59.0583 24.5134 56.6577 21.5521 56.6577C18.5907 56.6577 16.19 59.0583 16.19 62.0197C16.19 64.981 18.5907 67.3817 21.5521 67.3817Z" fill="#8BB5CB"/>
<path d="M37.7438 67.3817C40.7052 67.3817 43.1059 64.981 43.1059 62.0197C43.1059 59.0583 40.7052 56.6577 37.7438 56.6577C34.7825 56.6577 32.3818 59.0583 32.3818 62.0197C32.3818 64.981 34.7825 67.3817 37.7438 67.3817Z" fill="#8BB5CB"/>
<path d="M53.9333 67.3817C56.8946 67.3817 59.2953 64.981 59.2953 62.0197C59.2953 59.0583 56.8946 56.6577 53.9333 56.6577C50.9719 56.6577 48.5712 59.0583 48.5712 62.0197C48.5712 64.981 50.9719 67.3817 53.9333 67.3817Z" fill="#8BB5CB"/>
<path d="M70.1198 67.3817C73.0812 67.3817 75.4819 64.981 75.4819 62.0197C75.4819 59.0583 73.0812 56.6577 70.1198 56.6577C67.1585 56.6577 64.7578 59.0583 64.7578 62.0197C64.7578 64.981 67.1585 67.3817 70.1198 67.3817Z" fill="#8BB5CB"/>
<path d="M86.3099 67.3817C89.2712 67.3817 91.6719 64.981 91.6719 62.0197C91.6719 59.0583 89.2712 56.6577 86.3099 56.6577C83.3485 56.6577 80.9478 59.0583 80.9478 62.0197C80.9478 64.981 83.3485 67.3817 86.3099 67.3817Z" fill="#8BB5CB"/>
<path d="M102.501 67.3817C105.463 67.3817 107.863 64.981 107.863 62.0197C107.863 59.0583 105.463 56.6577 102.501 56.6577C99.5397 56.6577 97.139 59.0583 97.139 62.0197C97.139 64.981 99.5397 67.3817 102.501 67.3817Z" fill="#8BB5CB"/>
<path d="M5.36202 83.0709C8.32339 83.0709 10.724 80.6702 10.724 77.7089C10.724 74.7475 8.32339 72.3468 5.36202 72.3468C2.40066 72.3468 0 74.7475 0 77.7089C0 80.6702 2.40066 83.0709 5.36202 83.0709Z" fill="#8BB5CB"/>
<path d="M21.5521 83.0709C24.5134 83.0709 26.9141 80.6702 26.9141 77.7089C26.9141 74.7475 24.5134 72.3468 21.5521 72.3468C18.5907 72.3468 16.19 74.7475 16.19 77.7089C16.19 80.6702 18.5907 83.0709 21.5521 83.0709Z" fill="#8BB5CB"/>
<path d="M37.7438 83.0709C40.7052 83.0709 43.1059 80.6702 43.1059 77.7089C43.1059 74.7475 40.7052 72.3468 37.7438 72.3468C34.7825 72.3468 32.3818 74.7475 32.3818 77.7089C32.3818 80.6702 34.7825 83.0709 37.7438 83.0709Z" fill="#8BB5CB"/>
<path d="M53.9333 83.0709C56.8946 83.0709 59.2953 80.6702 59.2953 77.7089C59.2953 74.7475 56.8946 72.3468 53.9333 72.3468C50.9719 72.3468 48.5712 74.7475 48.5712 77.7089C48.5712 80.6702 50.9719 83.0709 53.9333 83.0709Z" fill="#8BB5CB"/>
<path d="M70.1198 83.0709C73.0812 83.0709 75.4819 80.6702 75.4819 77.7089C75.4819 74.7475 73.0812 72.3468 70.1198 72.3468C67.1585 72.3468 64.7578 74.7475 64.7578 77.7089C64.7578 80.6702 67.1585 83.0709 70.1198 83.0709Z" fill="#8BB5CB"/>
<path d="M86.3099 83.0709C89.2712 83.0709 91.6719 80.6702 91.6719 77.7089C91.6719 74.7475 89.2712 72.3468 86.3099 72.3468C83.3485 72.3468 80.9478 74.7475 80.9478 77.7089C80.9478 80.6702 83.3485 83.0709 86.3099 83.0709Z" fill="#8BB5CB"/>
<path d="M102.501 83.0709C105.463 83.0709 107.863 80.6702 107.863 77.7089C107.863 74.7475 105.463 72.3468 102.501 72.3468C99.5397 72.3468 97.139 74.7475 97.139 77.7089C97.139 80.6702 99.5397 83.0709 102.501 83.0709Z" fill="#8BB5CB"/>
<path d="M5.36215 98.7593C8.32325 98.7593 10.7237 96.3588 10.7237 93.3977C10.7237 90.4366 8.32325 88.0361 5.36215 88.0361C2.40105 88.0361 0.000610352 90.4366 0.000610352 93.3977C0.000610352 96.3588 2.40105 98.7593 5.36215 98.7593Z" fill="#8BB5CB"/>
<path d="M21.5522 98.7593C24.5133 98.7593 26.9137 96.3588 26.9137 93.3977C26.9137 90.4366 24.5133 88.0361 21.5522 88.0361C18.5911 88.0361 16.1906 90.4366 16.1906 93.3977C16.1906 96.3588 18.5911 98.7593 21.5522 98.7593Z" fill="#8BB5CB"/>
<path d="M37.744 98.7593C40.7051 98.7593 43.1056 96.3588 43.1056 93.3977C43.1056 90.4366 40.7051 88.0361 37.744 88.0361C34.7829 88.0361 32.3824 90.4366 32.3824 93.3977C32.3824 96.3588 34.7829 98.7593 37.744 98.7593Z" fill="#8BB5CB"/>
<path d="M53.9334 98.7593C56.8945 98.7593 59.2949 96.3588 59.2949 93.3977C59.2949 90.4366 56.8945 88.0361 53.9334 88.0361C50.9723 88.0361 48.5718 90.4366 48.5718 93.3977C48.5718 96.3588 50.9723 98.7593 53.9334 98.7593Z" fill="#8BB5CB"/>
<path d="M70.12 98.7593C73.0811 98.7593 75.4815 96.3588 75.4815 93.3977C75.4815 90.4366 73.0811 88.0361 70.12 88.0361C67.1589 88.0361 64.7584 90.4366 64.7584 93.3977C64.7584 96.3588 67.1589 98.7593 70.12 98.7593Z" fill="#8BB5CB"/>
<path d="M86.31 98.7593C89.2711 98.7593 91.6715 96.3588 91.6715 93.3977C91.6715 90.4366 89.2711 88.0361 86.31 88.0361C83.3489 88.0361 80.9485 90.4366 80.9485 93.3977C80.9485 96.3588 83.3489 98.7593 86.31 98.7593Z" fill="#8BB5CB"/>
<path d="M102.501 98.7593C105.462 98.7593 107.863 96.3588 107.863 93.3977C107.863 90.4366 105.462 88.0361 102.501 88.0361C99.5401 88.0361 97.1396 90.4366 97.1396 93.3977C97.1396 96.3588 99.5401 98.7593 102.501 98.7593Z" fill="#8BB5CB"/>
<path d="M5.36202 114.45C8.32339 114.45 10.724 112.049 10.724 109.088C10.724 106.127 8.32339 103.726 5.36202 103.726C2.40066 103.726 0 106.127 0 109.088C0 112.049 2.40066 114.45 5.36202 114.45Z" fill="#8BB5CB"/>
<path d="M21.5521 114.45C24.5134 114.45 26.9141 112.049 26.9141 109.088C26.9141 106.127 24.5134 103.726 21.5521 103.726C18.5907 103.726 16.19 106.127 16.19 109.088C16.19 112.049 18.5907 114.45 21.5521 114.45Z" fill="#8BB5CB"/>
<path d="M37.7438 114.45C40.7052 114.45 43.1059 112.049 43.1059 109.088C43.1059 106.127 40.7052 103.726 37.7438 103.726C34.7825 103.726 32.3818 106.127 32.3818 109.088C32.3818 112.049 34.7825 114.45 37.7438 114.45Z" fill="#8BB5CB"/>
<path d="M53.9333 114.45C56.8946 114.45 59.2953 112.049 59.2953 109.088C59.2953 106.127 56.8946 103.726 53.9333 103.726C50.9719 103.726 48.5712 106.127 48.5712 109.088C48.5712 112.049 50.9719 114.45 53.9333 114.45Z" fill="#8BB5CB"/>
<path d="M70.1198 114.45C73.0812 114.45 75.4819 112.049 75.4819 109.088C75.4819 106.127 73.0812 103.726 70.1198 103.726C67.1585 103.726 64.7578 106.127 64.7578 109.088C64.7578 112.049 67.1585 114.45 70.1198 114.45Z" fill="#8BB5CB"/>
<path d="M86.3099 114.45C89.2712 114.45 91.6719 112.049 91.6719 109.088C91.6719 106.127 89.2712 103.726 86.3099 103.726C83.3485 103.726 80.9478 106.127 80.9478 109.088C80.9478 112.049 83.3485 114.45 86.3099 114.45Z" fill="#8BB5CB"/>
<path d="M102.501 114.45C105.463 114.45 107.863 112.049 107.863 109.088C107.863 106.127 105.463 103.726 102.501 103.726C99.5397 103.726 97.139 106.127 97.139 109.088C97.139 112.049 99.5397 114.45 102.501 114.45Z" fill="#8BB5CB"/>
<path d="M5.36609 130.141C8.32745 130.141 10.7281 127.74 10.7281 124.778C10.7281 121.818 8.32745 119.417 5.36609 119.417C3.87865 119.417 2.53368 120.023 1.5625 121C2.40281 124.081 3.38027 127.103 4.48764 130.062C4.7745 130.11 5.06619 130.141 5.36609 130.141Z" fill="#8BB5CB"/>
<path d="M21.5521 130.141C24.5134 130.141 26.9141 127.74 26.9141 124.779C26.9141 121.818 24.5134 119.417 21.5521 119.417C18.5907 119.417 16.19 121.818 16.19 124.779C16.19 127.74 18.5907 130.141 21.5521 130.141Z" fill="#8BB5CB"/>
<path d="M37.7438 130.141C40.7052 130.141 43.1059 127.74 43.1059 124.779C43.1059 121.818 40.7052 119.417 37.7438 119.417C34.7825 119.417 32.3818 121.818 32.3818 124.779C32.3818 127.74 34.7825 130.141 37.7438 130.141Z" fill="#8BB5CB"/>
<path d="M53.9333 130.141C56.8946 130.141 59.2953 127.74 59.2953 124.779C59.2953 121.818 56.8946 119.417 53.9333 119.417C50.9719 119.417 48.5712 121.818 48.5712 124.779C48.5712 127.74 50.9719 130.141 53.9333 130.141Z" fill="#8BB5CB"/>
<path d="M70.1198 130.141C73.0812 130.141 75.4819 127.74 75.4819 124.779C75.4819 121.818 73.0812 119.417 70.1198 119.417C67.1585 119.417 64.7578 121.818 64.7578 124.779C64.7578 127.74 67.1585 130.141 70.1198 130.141Z" fill="#8BB5CB"/>
<path d="M86.3099 130.141C89.2712 130.141 91.6719 127.74 91.6719 124.779C91.6719 121.818 89.2712 119.417 86.3099 119.417C83.3485 119.417 80.9478 121.818 80.9478 124.779C80.9478 127.74 83.3485 130.141 86.3099 130.141Z" fill="#8BB5CB"/>
<path d="M102.501 130.141C105.463 130.141 107.863 127.74 107.863 124.779C107.863 121.818 105.463 119.417 102.501 119.417C99.5397 119.417 97.139 121.818 97.139 124.779C97.139 127.74 99.5397 130.141 102.501 130.141Z" fill="#8BB5CB"/>
<path d="M6.58698 135.251C7.70062 137.8 8.91424 140.294 10.2191 142.731C10.5408 142.043 10.7257 141.278 10.7257 140.467C10.7257 137.928 8.95819 135.806 6.58698 135.251Z" fill="#8BB5CB"/>
<path d="M21.5522 135.107C18.5913 135.107 16.1906 137.506 16.1906 140.467C16.1906 143.43 18.5913 145.83 21.5522 145.83C24.5135 145.83 26.9142 143.429 26.9142 140.467C26.9142 137.506 24.514 135.107 21.5522 135.107Z" fill="#8BB5CB"/>
<path d="M37.7438 145.83C40.7052 145.83 43.1059 143.429 43.1059 140.468C43.1059 137.507 40.7052 135.106 37.7438 135.106C34.7825 135.106 32.3818 137.507 32.3818 140.468C32.3818 143.429 34.7825 145.83 37.7438 145.83Z" fill="#8BB5CB"/>
<path d="M53.9333 145.83C56.8946 145.83 59.2953 143.429 59.2953 140.468C59.2953 137.507 56.8946 135.106 53.9333 135.106C50.9719 135.106 48.5712 137.507 48.5712 140.468C48.5712 143.429 50.9719 145.83 53.9333 145.83Z" fill="#8BB5CB"/>
<path d="M70.1198 145.83C73.0812 145.83 75.4819 143.429 75.4819 140.468C75.4819 137.507 73.0812 135.106 70.1198 135.106C67.1585 135.106 64.7578 137.507 64.7578 140.468C64.7578 143.429 67.1585 145.83 70.1198 145.83Z" fill="#8BB5CB"/>
<path d="M86.3099 145.83C89.2712 145.83 91.6719 143.429 91.6719 140.468C91.6719 137.507 89.2712 135.106 86.3099 135.106C83.3485 135.106 80.9478 137.507 80.9478 140.468C80.9478 143.429 83.3485 145.83 86.3099 145.83Z" fill="#8BB5CB"/>
<path d="M102.501 145.83C105.463 145.83 107.863 143.429 107.863 140.468C107.863 137.507 105.463 135.106 102.501 135.106C99.5397 135.106 97.139 137.507 97.139 140.468C97.139 143.429 99.5397 145.83 102.501 145.83Z" fill="#8BB5CB"/>
<path d="M26.9112 156.157C26.9112 153.196 24.5105 150.796 21.5491 150.796C19.5421 150.796 17.7948 151.901 16.8753 153.534C18.7728 156.23 20.7934 158.833 22.9308 161.333C25.2214 160.723 26.9112 158.64 26.9112 156.157Z" fill="#8BB5CB"/>
<path d="M37.744 161.519C40.7051 161.519 43.1056 159.119 43.1056 156.158C43.1056 153.196 40.7051 150.796 37.744 150.796C34.7829 150.796 32.3824 153.196 32.3824 156.158C32.3824 159.119 34.7829 161.519 37.744 161.519Z" fill="#8BB5CB"/>
<path d="M53.9334 161.519C56.8945 161.519 59.2949 159.119 59.2949 156.158C59.2949 153.196 56.8945 150.796 53.9334 150.796C50.9723 150.796 48.5718 153.196 48.5718 156.158C48.5718 159.119 50.9723 161.519 53.9334 161.519Z" fill="#8BB5CB"/>
<path d="M70.12 161.519C73.0811 161.519 75.4815 159.119 75.4815 156.158C75.4815 153.196 73.0811 150.796 70.12 150.796C67.1589 150.796 64.7584 153.196 64.7584 156.158C64.7584 159.119 67.1589 161.519 70.12 161.519Z" fill="#8BB5CB"/>
<path d="M86.31 161.519C89.2711 161.519 91.6715 159.119 91.6715 156.158C91.6715 153.196 89.2711 150.796 86.31 150.796C83.3489 150.796 80.9485 153.196 80.9485 156.158C80.9485 159.119 83.3489 161.519 86.31 161.519Z" fill="#8BB5CB"/>
<path d="M102.501 161.519C105.462 161.519 107.863 159.119 107.863 156.158C107.863 153.196 105.462 150.796 102.501 150.796C99.5401 150.796 97.1396 153.196 97.1396 156.158C97.1396 159.119 99.5401 161.519 102.501 161.519Z" fill="#8BB5CB"/>
<path d="M43.1047 171.846C43.1047 168.885 40.704 166.485 37.7432 166.485C35.0368 166.485 32.8047 168.491 32.4396 171.097C34.6987 173.137 37.0477 175.077 39.4793 176.915C41.5864 176.192 43.1047 174.199 43.1047 171.846Z" fill="#8BB5CB"/>
<path d="M53.9333 177.209C56.8946 177.209 59.2953 174.808 59.2953 171.847C59.2953 168.885 56.8946 166.485 53.9333 166.485C50.9719 166.485 48.5712 168.885 48.5712 171.847C48.5712 174.808 50.9719 177.209 53.9333 177.209Z" fill="#8BB5CB"/>
<path d="M70.1198 177.209C73.0812 177.209 75.4819 174.808 75.4819 171.847C75.4819 168.885 73.0812 166.485 70.1198 166.485C67.1585 166.485 64.7578 168.885 64.7578 171.847C64.7578 174.808 67.1585 177.209 70.1198 177.209Z" fill="#8BB5CB"/>
<path d="M86.3099 177.209C89.2712 177.209 91.6719 174.808 91.6719 171.847C91.6719 168.885 89.2712 166.485 86.3099 166.485C83.3485 166.485 80.9478 168.885 80.9478 171.847C80.9478 174.808 83.3485 177.209 86.3099 177.209Z" fill="#8BB5CB"/>
<path d="M102.501 177.209C105.463 177.209 107.863 174.808 107.863 171.847C107.863 168.885 105.463 166.485 102.501 166.485C99.5397 166.485 97.139 168.885 97.139 171.847C97.139 174.808 99.5397 177.209 102.501 177.209Z" fill="#8BB5CB"/>
<path d="M53.9301 182.174C52.3707 182.174 50.9702 182.845 49.9904 183.908C52.9614 185.635 56.0256 187.221 59.1729 188.655C59.2501 188.294 59.2922 187.92 59.2922 187.536C59.2922 184.574 56.8915 182.174 53.9301 182.174Z" fill="#8BB5CB"/>
<path d="M75.4815 187.535C75.4815 184.574 73.0813 182.173 70.12 182.173C67.1586 182.173 64.7584 184.574 64.7584 187.535C64.7584 189.277 65.592 190.82 66.879 191.799C67.9313 192.18 68.9918 192.545 70.0596 192.894C70.0804 192.894 70.0992 192.897 70.12 192.897C73.0808 192.897 75.4815 190.497 75.4815 187.535Z" fill="#8BB5CB"/>
<path d="M86.3099 192.897C89.2712 192.897 91.6719 190.496 91.6719 187.535C91.6719 184.574 89.2712 182.173 86.3099 182.173C83.3485 182.173 80.9478 184.574 80.9478 187.535C80.9478 190.496 83.3485 192.897 86.3099 192.897Z" fill="#8BB5CB"/>
<path d="M102.501 192.897C105.463 192.897 107.863 190.496 107.863 187.535C107.863 184.574 105.463 182.173 102.501 182.173C99.5397 182.173 97.139 184.574 97.139 187.535C97.139 190.496 99.5397 192.897 102.501 192.897Z" fill="#8BB5CB"/>
</g>
</svg>
