<svg width="165" height="112" viewBox="0 0 165 112" fill="none" xmlns="http://www.w3.org/2000/svg">
<path d="M64.5505 1.84159e-06L8.91788 55.6326L64.5501 111.265L120.183 55.6321L64.5505 1.84159e-06Z" fill="#646DA6"/>
<path d="M158.446 28.6119H67.7515L74.306 22.0157H165L158.446 28.6119Z" fill="#8BB5CB"/>
<path d="M144.895 42.2497H54.2002L60.7544 35.6532H151.45L144.895 42.2497Z" fill="#8BB5CB"/>
<path d="M131.346 55.8869H40.6521L47.2063 49.2905H137.901L131.346 55.8869Z" fill="#8BB5CB"/>
<path d="M117.794 69.5242H27.1001L33.6546 62.9273H124.349L117.794 69.5242Z" fill="#8BB5CB"/>
<path d="M104.246 83.1618H13.552L20.1062 76.5649H110.8L104.246 83.1618Z" fill="#8BB5CB"/>
<path d="M90.6946 96.7988H0L6.5545 90.2026H97.2488L90.6946 96.7988Z" fill="#8BB5CB"/>
</svg>
